<?xml version="1.0" encoding="UTF-8" standalone="no"?>
<!-- Created with Inkscape (http://www.inkscape.org/) -->

<svg
   width="105.71423mm"
   height="96.801025mm"
   viewBox="0 0 105.71422 96.801024"
   version="1.1"
   id="svg5"
   inkscape:version="1.1 (c68e22c387, 2021-05-23)"
   sodipodi:docname="alaister_net_icon.svg"
   xmlns:inkscape="http://www.inkscape.org/namespaces/inkscape"
   xmlns:sodipodi="http://sodipodi.sourceforge.net/DTD/sodipodi-0.dtd"
   xmlns="http://www.w3.org/2000/svg"
   xmlns:svg="http://www.w3.org/2000/svg">
  <sodipodi:namedview
     id="namedview7"
     pagecolor="#505050"
     bordercolor="#ffffff"
     borderopacity="1"
     inkscape:pageshadow="0"
     inkscape:pageopacity="0"
     inkscape:pagecheckerboard="1"
     inkscape:document-units="mm"
     showgrid="false"
     fit-margin-top="0"
     fit-margin-left="0"
     fit-margin-right="0"
     fit-margin-bottom="0"
     inkscape:zoom="0.70710678"
     inkscape:cx="533.86562"
     inkscape:cy="191.62594"
     inkscape:window-width="1366"
     inkscape:window-height="739"
     inkscape:window-x="-9"
     inkscape:window-y="-9"
     inkscape:window-maximized="1"
     inkscape:current-layer="layer1" />
  <defs
     id="defs2" />
  <g
     inkscape:label="Layer 1"
     inkscape:groupmode="layer"
     id="layer1"
     transform="translate(75.207814,-101.97764)">
    <g
       id="g507"
       transform="translate(-133.20713,4.8643054)">
      <path
         style="fill:#cbf4af;stroke-width:0.264583"
         d="m 112.05104,191.64795 -15.610414,-2.22899 -0.529167,0.61533 c -0.291042,0.33842 -0.70776,0.88271 -0.926042,1.20952 l -0.396875,0.59421 -8.907486,-1.25095 -8.907489,-1.25096 -3.569748,-8.33836 -3.569745,-8.33837 0.782087,-1.08904 0.782087,-1.08904 -6.530367,-15.19221 c -3.591703,-8.35572 -6.586591,-15.45354 -6.655306,-15.77294 -0.0952,-0.44248 2.023259,-3.57846 8.898952,-13.17324 4.963139,-6.92588 9.02389,-12.79645 9.02389,-13.04572 0,-0.66198 9.621515,-14.03694 10.928374,-15.191638 0.610592,-0.539498 1.376619,-0.985982 1.702279,-0.992187 0.325662,-0.0062 8.660037,1.118896 18.52083,2.500223 9.8608,1.381332 21.02435,2.942432 24.80789,3.469112 3.78355,0.52668 7.01601,1.09315 7.18326,1.25881 0.16724,0.16566 3.42216,7.56345 7.23314,16.43954 3.81098,8.87608 7.06743,16.22637 7.23654,16.33397 0.16911,0.1076 0.66467,0.19908 1.10123,0.20329 1.83643,0.0177 1.79205,-0.0442 4.5225,6.3103 1.41638,3.2963 3.01777,7.02297 3.55866,8.28149 l 0.98342,2.28823 -5.2137,7.23677 c -4.4402,6.16313 -5.30888,7.23274 -5.85521,7.20959 -0.35283,-0.0149 -1.53447,-0.11228 -2.62588,-0.21629 l -1.98437,-0.18911 -9.12813,12.83563 -9.12812,12.83563 -1.05834,-0.0168 c -0.58208,-0.009 -8.08302,-1.01985 -16.66875,-2.24579 z"
         id="path521" />
      <path
         style="fill:#b4e9a7;stroke-width:0.264583"
         d="m 112.08412,191.6246 c -14.840508,-2.12048 -15.858378,-2.23415 -16.102366,-1.79817 -0.143249,0.25597 -0.574853,0.80117 -0.959123,1.21156 l -0.698672,0.74615 -8.598959,-1.20211 c -4.729427,-0.66117 -8.729877,-1.33705 -8.889886,-1.50197 -0.441296,-0.45483 -7.047209,-16.06866 -6.87233,-16.24354 0.08382,-0.0838 4.051562,0.39264 8.817205,1.05881 4.765641,0.66616 8.682303,1.19216 8.703689,1.16888 0.02138,-0.0233 2.358041,-3.27632 5.192564,-7.22897 l 5.153679,-7.18663 -0.826939,-0.14401 c -2.444549,-0.42571 -16.854901,-2.34785 -16.925719,-2.25766 -0.04586,0.0584 -2.026923,2.82031 -4.402376,6.13757 -2.37545,3.31726 -4.401299,5.93663 -4.501886,5.82083 -0.353057,-0.40645 -13.267489,-30.81988 -13.140816,-30.94655 0.07046,-0.0705 11.598669,1.47836 25.618241,3.44183 14.019573,1.96347 25.501224,3.55008 25.514774,3.52581 0.397,-0.71099 29.86128,-41.71503 29.97365,-41.7129 0.218,0.004 14.08261,32.33654 13.93128,32.48787 -0.0646,0.0646 -3.29545,-0.32008 -7.17969,-0.85482 -3.88424,-0.53475 -7.14881,-0.87672 -7.2546,-0.75994 -0.10578,0.11678 -2.36542,3.24841 -5.02142,6.95919 -2.65599,3.71079 -4.93277,6.87772 -5.0595,7.03763 -0.16293,0.20557 2.33745,0.64932 8.5358,1.51486 4.82143,0.67327 8.85764,1.16762 8.96937,1.09857 0.11173,-0.0691 2.49981,-3.34411 5.30686,-7.2779 3.65768,-5.12589 5.16392,-7.04477 5.31621,-6.77264 0.85495,1.5277 6.83755,15.98118 6.75137,16.31075 -0.0599,0.22897 -2.39789,3.59937 -5.19557,7.48979 -5.04932,7.02149 -5.09288,7.07243 -5.92585,6.93167 -2.72395,-0.46032 -4.03573,-0.59953 -4.19861,-0.44559 -0.10145,0.0959 -4.27489,5.88932 -9.27431,12.87432 -8.86894,12.39136 -9.11202,12.70099 -10.002,12.74044 -0.50168,0.0222 -8.04101,-0.97817 -16.75407,-2.22313 z M 91.155203,130.8044 c -4.507712,-0.6546 -8.214358,-1.21283 -8.236987,-1.24052 -0.283046,-0.34629 -6.984014,-16.40919 -6.886229,-16.50698 0.117422,-0.11742 15.476213,1.84943 17.018763,2.17943 0.499549,0.10686 1.295294,-0.87346 5.806882,-7.15385 2.875398,-4.00272 5.315898,-7.18805 5.423328,-7.07852 0.10742,0.10954 1.75565,3.84052 3.66273,8.29105 l 3.46741,8.09189 -5.18935,7.25395 c -4.82898,6.75018 -5.24774,7.25741 -6.03003,7.30384 -0.462374,0.0274 -4.528805,-0.48569 -9.036517,-1.14029 z"
         id="path519" />
      <path
         style="fill:#8bd494;stroke-width:0.264583"
         d="m 112.2412,191.62048 -15.949421,-2.27292 -0.41374,0.5907 c -0.227554,0.32488 -0.670313,0.86993 -0.983908,1.21122 l -0.570172,0.62052 -8.653352,-1.23031 c -4.759343,-0.67667 -8.759161,-1.34937 -8.888481,-1.4949 -0.394724,-0.44416 -6.981288,-16.04632 -6.835582,-16.19203 0.07489,-0.0749 4.032245,0.41673 8.794123,1.09248 4.761881,0.67575 8.751097,1.1349 8.864923,1.02034 0.515699,-0.51901 10.244212,-14.23314 10.15791,-14.31944 -0.134456,-0.13445 -16.245031,-2.42006 -17.07877,-2.42296 -0.578321,-0.002 -1.295151,0.86556 -5.020577,6.07635 -2.390262,3.34328 -4.418092,5.99242 -4.506288,5.88698 -0.303747,-0.36314 -13.255428,-30.79797 -13.150761,-30.90264 0.05765,-0.0576 11.547393,1.50067 25.532756,3.46295 13.985364,1.96227 25.4741,3.56777 25.53052,3.56777 0.0564,0 6.82235,-9.40212 15.03538,-20.8936 8.21303,-11.49147 14.99231,-20.89493 15.06508,-20.89657 0.14674,-0.003 14.02073,32.35554 13.91703,32.45924 -0.0358,0.0358 -3.20159,-0.36705 -7.03504,-0.89528 -4.31644,-0.59478 -7.10838,-0.87076 -7.3336,-0.72492 -0.40941,0.26511 -10.43885,14.17178 -10.31207,14.29856 0.14836,0.14836 17.18401,2.49889 17.5337,2.41924 0.18868,-0.043 2.62493,-3.27408 5.41389,-7.18024 2.78895,-3.90616 5.16359,-7.00179 5.27697,-6.87917 0.25921,0.28032 6.88078,15.75287 6.88078,16.07823 0,0.13164 -2.32935,3.48942 -5.17633,7.46172 -4.85928,6.77998 -5.21986,7.21443 -5.88698,7.09296 -2.18415,-0.3977 -4.17941,-0.56191 -4.39236,-0.36149 -0.13318,0.12533 -4.31474,5.91726 -9.29236,12.87095 -8.18089,11.42861 -9.12341,12.64721 -9.81204,12.68612 -0.41899,0.0237 -7.93904,-0.97976 -16.71123,-2.22986 z M 91.413542,130.7905 c -4.511146,-0.6512 -8.284673,-1.26445 -8.385617,-1.36277 -0.246105,-0.23972 -7.092865,-16.2739 -6.992133,-16.37463 0.04346,-0.0435 4.046283,0.46343 8.895154,1.12644 5.033873,0.6883 8.883121,1.10273 8.97228,0.96599 1.619502,-2.48372 10.253994,-14.2393 10.367354,-14.11483 0.0864,0.0948 1.32388,2.91086 2.75001,6.25784 1.42614,3.34698 2.98117,6.99205 3.45563,8.10014 l 0.86265,2.01473 -5.21276,7.24569 c -4.26022,5.92166 -5.33134,7.25298 -5.86163,7.28556 -0.356868,0.0219 -4.339792,-0.49295 -8.850938,-1.14416 z"
         id="path517" />
      <path
         style="fill:#62ca84;stroke-width:0.264583"
         d="m 112.97708,191.67391 c -8.51296,-1.21592 -15.782622,-2.2156 -16.154793,-2.2215 -0.503229,-0.008 -0.883224,0.2823 -1.482521,1.13253 l -0.805852,1.14327 -8.774788,-1.22735 c -4.826132,-0.67504 -8.874215,-1.33834 -8.995741,-1.474 -0.318693,-0.35575 -6.960978,-16.02996 -6.843027,-16.14791 0.05431,-0.0543 3.935421,0.44614 8.624684,1.11212 4.689266,0.66597 8.684467,1.15003 8.878224,1.07568 0.493421,-0.18935 10.545323,-14.21491 10.338329,-14.42523 -0.09296,-0.0945 -4.059613,-0.72967 -8.814787,-1.41161 l -8.645766,-1.23988 -0.631637,0.71071 c -0.347401,0.3909 -2.388794,3.1798 -4.536427,6.19757 l -3.904792,5.48684 -6.648996,-15.51218 c -3.656947,-8.53171 -6.61618,-15.53906 -6.576072,-15.57189 0.05212,-0.0427 37.59836,5.19164 50.635562,7.0591 0.46377,0.0664 3.03702,-3.38856 15.45652,-20.75274 8.19507,-11.45784 14.97841,-20.83244 15.07408,-20.83244 0.0957,0 2.46608,5.38758 5.26757,11.9724 2.80148,6.58481 5.19163,12.16017 5.31143,12.38967 0.1198,0.2295 0.89825,2.01543 1.72988,3.96875 0.83164,1.95331 1.55089,3.61812 1.59834,3.69957 0.0738,0.12677 -11.18575,-1.31259 -13.52485,-1.72893 -0.79677,-0.14182 -0.89416,-0.0267 -6.04767,7.15019 -2.88082,4.01189 -5.1676,7.36459 -5.08174,7.45045 0.0859,0.0859 4.10305,0.71251 8.92707,1.39253 l 8.77095,1.23641 1.08935,-1.47987 c 0.59914,-0.81393 2.93066,-4.06521 5.18116,-7.22507 2.25049,-3.15986 4.17369,-5.65769 4.27377,-5.55075 0.32365,0.34584 6.87776,15.98061 6.79538,16.21032 -0.0438,0.12224 -2.3419,3.37861 -5.10679,7.23638 l -5.02709,7.01412 -1.98437,-0.13005 c -1.09141,-0.0715 -2.28118,-0.15443 -2.64394,-0.18423 -0.58556,-0.0481 -1.64589,1.32619 -9.45062,12.24895 -4.83508,6.76671 -9.02388,12.57101 -9.30844,12.89843 -0.28456,0.32743 -0.73475,0.58296 -1.00042,0.56786 -0.26567,-0.0151 -7.4482,-1.0223 -15.96117,-2.23822 z m -21.405608,-60.94077 -8.573323,-1.22836 -3.511084,-8.19593 c -1.931099,-4.50777 -3.490447,-8.2134 -3.465222,-8.23474 0.06568,-0.0556 16.882833,2.24513 17.458349,2.38841 0.287764,0.0717 0.551969,-0.0629 0.661458,-0.33686 0.379466,-0.94946 9.95068,-14.04882 10.1255,-13.85797 0.22996,0.25104 6.85785,15.73979 6.85785,16.02615 0,0.43236 -10.38538,14.7319 -10.67656,14.70045 -0.167,-0.0181 -4.161643,-0.58556 -8.876968,-1.26115 z"
         id="path515" />
      <path
         style="fill:#6aba84;stroke-width:0.264583"
         d="m 112.97708,191.67958 c -8.51296,-1.2128 -15.753293,-2.24224 -16.089615,-2.28764 -0.554866,-0.0749 -0.255368,-0.57802 3.234055,-5.43261 2.11505,-2.94252 3.99757,-5.62143 4.18337,-5.95312 0.1858,-0.3317 0.41759,-0.66375 0.51508,-0.7379 0.15799,-0.12016 -1.24163,-3.62355 -2.74725,-6.87664 -0.30308,-0.65484 -0.58129,-1.30969 -0.61826,-1.45521 -0.16319,-0.64245 -3.374129,-7.96419 -3.597014,-8.20208 -0.13634,-0.14552 -4.142304,-0.82253 -8.902148,-1.50447 l -8.654256,-1.23988 -0.631637,0.71071 c -0.347401,0.3909 -2.388794,3.1798 -4.536427,6.19757 l -3.904792,5.48684 -6.648996,-15.51218 c -3.656947,-8.53171 -6.61618,-15.53909 -6.576072,-15.57195 0.08762,-0.0718 50.488602,6.98285 50.884452,7.12233 0.20325,0.0716 19.2658,44.09023 20.3767,47.05322 0.1279,0.34113 0.0443,0.45579 -0.31773,0.43556 -0.27023,-0.0151 -7.45649,-1.01975 -15.96946,-2.23255 z m -27.321358,-1.18016 c -4.767533,-0.67252 -8.768377,-1.33447 -8.890765,-1.47099 -0.318659,-0.35545 -6.963143,-16.03094 -6.845163,-16.14892 0.054,-0.054 4.057661,0.46547 8.897023,1.15438 l 8.798832,1.25257 2.860316,6.74688 c 3.104557,7.323 4.023151,9.58585 3.916727,9.64843 -0.0378,0.0222 -3.96944,-0.50983 -8.73697,-1.18235 z M 150.78451,168.4234 c -0.0639,-0.0639 -1.00648,-0.18219 -2.09462,-0.26286 -2.10181,-0.15583 -13.22361,-1.64347 -13.35033,-1.78573 -0.19701,-0.22116 -7.04383,-16.41632 -6.96957,-16.4855 0.0853,-0.0795 16.26929,2.14058 17.30157,2.37334 0.42774,0.0965 1.04663,1.29774 2.82751,5.48823 3.32434,7.82233 4.4301,10.47882 4.4301,10.64292 0,0.172 -1.97501,0.19925 -2.14466,0.0296 z m -59.213038,-37.69026 -8.573323,-1.22836 -3.511084,-8.19593 c -1.931099,-4.50777 -3.490447,-8.2134 -3.465222,-8.23474 0.04519,-0.0382 16.647536,2.20935 17.330476,2.34615 0.298127,0.0597 1.724033,3.22879 6.668571,14.82089 0.47391,1.11105 0.64126,1.77354 0.44284,1.75314 -0.17541,-0.0181 -4.176933,-0.58556 -8.892258,-1.26115 z"
         id="path513" />
      <path
         style="fill:#63c27e;stroke-width:0.264583"
         d="m 113.10938,191.67921 c -8.44021,-1.2086 -15.680485,-2.23624 -16.089497,-2.28364 -0.7317,-0.0848 -0.681807,-0.17225 3.101757,-5.43624 2.11499,-2.94252 3.99745,-5.62143 4.18325,-5.95312 0.1858,-0.3317 0.41759,-0.66375 0.51508,-0.7379 0.15892,-0.12087 -1.2812,-3.72118 -2.75065,-6.87664 -0.30495,-0.65484 -0.56507,-1.25303 -0.57804,-1.32929 -0.013,-0.0763 -0.83435,-2.04421 -1.825309,-4.37322 l -1.801739,-4.23456 -7.855553,-1.12873 c -10.821533,-1.55489 -9.67244,-1.50475 -10.549687,-0.4603 -0.409998,0.48815 -2.39889,3.22916 -4.419759,6.09115 -2.020869,2.862 -3.766182,5.10684 -3.878474,4.98856 -0.249976,-0.26332 -13.267474,-30.55807 -13.160791,-30.62823 0.09595,-0.0631 49.893672,6.93345 50.611492,7.11087 0.41814,0.10336 2.63859,5.05195 10.58333,23.58655 5.52979,12.90067 10.09386,23.56136 10.14236,23.69044 0.12302,0.32733 0.75795,0.40658 -16.22777,-2.0257 z m -28.250718,-1.29809 c -4.332788,-0.6208 -7.939786,-1.19071 -8.015552,-1.26648 -0.207891,-0.20789 -7.019171,-16.1399 -6.934372,-16.21993 0.04045,-0.0382 4.043063,0.48988 8.894688,1.17345 l 8.821135,1.24288 2.84707,6.73458 c 1.565889,3.70403 3.092775,7.35967 3.393083,8.12365 l 0.546012,1.38907 -0.837133,-0.0242 c -0.460423,-0.0133 -4.382143,-0.53217 -8.714931,-1.15297 z m 66.182568,-21.96559 c -0.0682,-0.0682 -1.07034,-0.18667 -2.22691,-0.26321 -2.113,-0.13983 -13.33455,-1.62011 -13.47476,-1.77751 -0.1884,-0.21151 -7.04495,-16.41336 -6.96957,-16.46892 0.12285,-0.0906 17.68332,2.40922 17.80929,2.53519 0.10771,0.10771 4.10337,9.50407 5.6643,13.32038 0.47616,1.16417 0.92795,2.2655 1.00397,2.4474 0.095,0.22728 -0.14648,0.33073 -0.77202,0.33073 -0.50064,0 -0.96607,-0.0558 -1.0343,-0.12406 z M 91.747039,130.71884 c -4.764286,-0.68412 -8.701286,-1.29472 -8.748887,-1.35687 -0.07411,-0.0968 -5.705375,-13.12489 -6.693591,-15.48585 -0.326843,-0.78087 -0.315227,-0.81612 0.238972,-0.72517 0.320378,0.0526 4.094853,0.57005 8.387717,1.14995 4.292865,0.57989 8.043334,1.11299 8.334376,1.18467 0.405011,0.0997 1.180978,1.66477 3.307291,6.67039 1.527969,3.59704 3.10052,7.28956 3.494563,8.2056 0.39403,0.91604 0.63216,1.65104 0.52916,1.63334 -0.10299,-0.0177 -4.085315,-0.59193 -8.849601,-1.27606 z"
         id="path511" />
      <path
         style="fill:#4baa6a;stroke-width:0.264583"
         d="m 128.32292,193.78937 c -0.21828,-0.0488 -7.42156,-1.06597 -16.00729,-2.26025 -8.58573,-1.19429 -15.65689,-2.20892 -15.713685,-2.25475 -0.0568,-0.0458 1.833525,-2.77721 4.200715,-6.06975 l 4.30398,-5.98642 -3.5824,-8.3742 -3.5824,-8.37421 -7.629774,-1.11945 c -4.196377,-0.6157 -8.225087,-1.18847 -8.952691,-1.27281 l -1.322916,-0.15336 -4.365626,6.11845 c -3.044026,4.26622 -4.432633,6.01318 -4.586975,5.77073 -0.692674,-1.08812 -13.033078,-30.26126 -12.832774,-30.33712 0.297481,-0.11266 50.430296,6.89794 50.731166,7.09428 0.15199,0.0992 18.69044,43.00988 20.32169,47.03835 0.12908,0.31876 -0.14117,0.36849 -0.98102,0.18051 z m -43.460276,-3.41034 c -4.3306,-0.61527 -7.937598,-1.18245 -8.015552,-1.26041 -0.205632,-0.20563 -7.025839,-16.14328 -6.938354,-16.21373 0.202898,-0.16341 17.417857,2.42638 17.615752,2.65009 0.12682,0.14335 1.509154,3.29674 3.071855,7.00752 1.562703,3.71078 3.010937,7.13787 3.218299,7.61575 0.207362,0.47788 0.377023,0.9839 0.377023,1.12448 0,0.37313 -0.664109,0.30737 -9.329023,-0.9237 z m 64.494646,-22.15735 c -1.01864,-0.13533 -4.53099,-0.60243 -7.8052,-1.038 -3.27422,-0.43558 -6.03274,-0.87423 -6.13005,-0.9748 -0.0973,-0.10056 -1.72372,-3.78448 -3.61425,-8.18648 -3.14023,-7.31184 -3.38794,-8.00344 -2.86579,-8.0013 1.23798,0.005 16.91291,2.34256 17.1239,2.55355 0.16508,0.16508 5.63931,12.77504 6.78711,15.63421 0.15415,0.38397 -0.67907,0.38702 -3.49572,0.0128 z M 90.935691,130.56964 c -4.337402,-0.62142 -7.919024,-1.17279 -7.959161,-1.22527 -0.34295,-0.44839 -6.781885,-15.92096 -6.67148,-16.03137 0.239372,-0.23936 16.936112,2.09276 17.265772,2.4116 0.16786,0.16236 0.979829,1.90254 1.804379,3.86707 0.824551,1.96453 1.660303,3.92906 1.857233,4.36562 0.685609,1.51991 3.309236,7.64383 3.309236,7.72424 0,0.20184 -2.271583,-0.0611 -9.605979,-1.11189 z"
         id="path509" />
    </g>
  </g>
</svg>
